# xmcd CD database file
#
# Track frame offsets:
#	150
#	18590
#	36287
#	54780
#	67028
#	79657
#
# Disc length: 1208 seconds
#
# Revision: 2
# Processed by: cddbd v1.5.1PL2 Copyright (c) Steve Scherf et al.
# Submitted via: CDex 1.51
#
DISCID=4504b606
DTITLE=Beth Rowley - Sweet Hours
DYEAR=2005
DGENRE=Jazz
TTITLE0=Nobody's Fault But Mine (live)
TTITLE1=How Could You Ever Leave
TTITLE2=Sweet Hours
TTITLE3=Magazines
TTITLE4=Leaning On a Lamp-Post (live)
TTITLE5=Be My Baby
EXTD=YEAR: 2005
EXTT0=
EXTT1=
EXTT2=
EXTT3=
EXTT4=
EXTT5=
PLAYORDER=
